<svg xmlns="http://www.w3.org/2000/svg" viewBox="0 0 1 1"
xmlns:xlink="http://www.w3.org/1999/xlink" style="background-color:#333447">
  <path fill="#FFFFFF" d="m0.694706,0.159701c-0.000981,0.000918 -0.010818,0.005818 -0.029498,0.014857c-0.014999,0.007201 -0.022381,0.01363 -0.022381,0.019298l0,0.374199c0,0.027574 0.004432,0.048557 0.01303,0.062955c0.004919,0.007661 0.012049,0.014246 0.021643,0.019762c0.00295,0.000762 0.004418,0.00214 0.004418,0.003982c0,0.001529 -0.002456,0.002755 -0.007131,0.00383c-0.004912,0.00107 -0.011062,0.004284 -0.01893,0.009649c-0.012286,0.008882 -0.026297,0.023128 -0.041784,0.042582c-0.026311,0.033544 -0.052616,0.067087 -0.079163,0.10048c-0.040323,0.040129 -0.08555,0.060194 -0.135459,0.060194c-0.025567,0 -0.045728,-0.003366 -0.060971,-0.010108c-0.014992,-0.006737 -0.02261,-0.015008 -0.02261,-0.024965c0,-0.008887 0.004668,-0.016391 0.013761,-0.022366c0.009093,-0.00597 0.020405,-0.009033 0.033686,-0.009033c0.014505,0 0.026054,0.002755 0.03466,0.008115c0.006637,0.004138 0.010081,0.00873 0.010081,0.013479c0,0.006893 0.000494,0.011794 0.001718,0.014554c0.001231,0.002912 0.004919,0.00429 0.011312,0.00429c0.020648,0 0.04474,-0.019605 0.07277,-0.058822c0.032204,-0.044878 0.048184,-0.091901 0.048184,-0.141376l0,-0.451395c0,-0.005672 -0.007131,-0.012101 -0.021636,-0.019303c-0.010575,-0.005057 -0.021142,-0.010259 -0.03171,-0.015624c-0.001475,-0.001226 -0.001725,-0.003063 -0.000988,-0.005511c0.000737,-0.002301 0.004425,-0.003528 0.011062,-0.003528c0.004919,-0.000303 0.019173,0.000157 0.043272,0.001226c0.024092,0.001075 0.04081,0.001534 0.050396,0.001534c0.019173,0 0.038841,-0.000459 0.058759,-0.001378c0.019911,-0.000924 0.030972,-0.001383 0.033428,-0.001383c0.008606,0 0.01303,0.001686 0.01303,0.004905c0,0.001837 -0.000981,0.003522 -0.00295,0.0049zm0.288833,0.33251c0,0.122929 -0.045471,0.233538 -0.136405,0.332066c-0.099353,0.107415 -0.222004,0.161013 -0.368233,0.161013c-0.139209,0 -0.253157,-0.049037 -0.342123,-0.147101c-0.082231,-0.090774 -0.123215,-0.199102 -0.123215,-0.324766c0,-0.101492 0.022735,-0.190434 0.068206,-0.266607c0.044059,-0.073443 0.102998,-0.125893 0.176812,-0.157141c0.010108,-0.003418 0.016843,-0.00525 0.020774,-0.00525c0.004772,0 0.007291,0.001602 0.007291,0.00479c0,0.004336 -0.005044,0.009805 -0.014867,0.016652c-0.030033,0.021437 -0.054452,0.043787 -0.073257,0.067505c-0.025817,0.033298 -0.045186,0.073214 -0.058376,0.119511c-0.015438,0.055414 -0.023021,0.124297 -0.023021,0.20731c0,0.106507 0.039863,0.201153 0.119284,0.283942c0.082238,0.085978 0.179344,0.129082 0.291894,0.129082c0.103562,0 0.187762,-0.0301 0.252316,-0.090314c0.070725,-0.065908 0.106087,-0.158733 0.106087,-0.278693c0,-0.12772 -0.040977,-0.241752 -0.123208,-0.342101c-0.079149,-0.096243 -0.163906,-0.144366 -0.254841,-0.144366c-0.036768,0 -0.065959,0.007525 -0.087567,0.022356c-0.072144,0.050248 -0.110699,0.005599 -0.044907,-0.033074c0.04266,-0.02486 0.092896,-0.0374 0.150438,-0.0374c0.136398,0 0.247828,0.049032 0.334554,0.147101c0.081668,0.092141 0.122366,0.203892 0.122366,0.335484z"/>
</svg>